<svg xmlns="http://www.w3.org/2000/svg" xmlns:xlink="http://www.w3.org/1999/xlink" width="500" zoomAndPan="magnify" viewBox="0 0 375 374.999991" height="500" preserveAspectRatio="xMidYMid meet" version="1.0"><defs><g/><clipPath id="3837f9319c"><path d="M 263.953125 130.148438 L 357.875 130.148438 L 357.875 228.496094 L 263.953125 228.496094 Z M 263.953125 130.148438 " clip-rule="nonzero"/></clipPath></defs><rect x="-37.5" width="450" fill="#ffffff" y="-37.499999" height="449.999989" fill-opacity="1"/><rect x="-37.5" width="450" fill="#000000" y="-37.499999" height="449.999989" fill-opacity="1"/><g fill="#ffffff" fill-opacity="1"><g transform="translate(14.317185, 216.705568)"><g><path d="M 31.875 -86.984375 L 31.875 0 L 10.0625 0 L 10.0625 -86.984375 Z M 31.875 -86.984375 "/></g></g></g><g fill="#ffffff" fill-opacity="1"><g transform="translate(56.249236, 216.705568)"><g><path d="M 9.703125 0 L 9.703125 -86.984375 L 61.21875 -86.984375 C 71.445312 -86.984375 79.335938 -84.347656 84.890625 -79.078125 C 90.441406 -73.804688 93.21875 -66.578125 93.21875 -57.390625 C 93.21875 -48.203125 90.441406 -40.890625 84.890625 -35.453125 C 79.335938 -30.023438 71.445312 -27.3125 61.21875 -27.3125 L 31.515625 -27.3125 L 31.515625 0 Z M 31.515625 -69.125 L 31.515625 -45.171875 L 51.515625 -45.171875 C 58.304688 -45.171875 63.316406 -45.945312 66.546875 -47.5 C 69.785156 -49.0625 71.40625 -52.238281 71.40625 -57.03125 C 71.40625 -61.976562 69.945312 -65.226562 67.03125 -66.78125 C 64.113281 -68.34375 59.421875 -69.125 52.953125 -69.125 Z M 31.515625 -69.125 "/></g></g></g><g fill="#ffffff" fill-opacity="1"><g transform="translate(154.490054, 216.705568)"><g><path d="M 93.453125 -60.265625 L 71.765625 -60.265625 C 70.804688 -68.890625 63.695312 -73.203125 50.4375 -73.203125 C 44.125 -73.203125 39.332031 -72.300781 36.0625 -70.5 C 32.789062 -68.707031 31.15625 -66.296875 31.15625 -63.265625 C 31.15625 -60.066406 32.53125 -57.96875 35.28125 -56.96875 C 38.039062 -55.96875 42.535156 -55.148438 48.765625 -54.515625 L 64.9375 -52.84375 C 75.882812 -51.644531 84.007812 -49.003906 89.3125 -44.921875 C 94.625 -40.847656 97.28125 -34.976562 97.28125 -27.3125 C 97.28125 -17.8125 93.382812 -10.503906 85.59375 -5.390625 C 77.8125 -0.273438 66.296875 2.28125 51.046875 2.28125 C 36.347656 2.28125 25.179688 -0.394531 17.546875 -5.75 C 9.921875 -11.101562 6.109375 -19.210938 6.109375 -30.078125 L 28.390625 -30.078125 C 28.316406 -19.523438 36.742188 -14.25 53.671875 -14.25 C 60.140625 -14.25 65.070312 -15.1875 68.46875 -17.0625 C 71.863281 -18.945312 73.5625 -21.566406 73.5625 -24.921875 C 73.5625 -28.273438 72.179688 -30.550781 69.421875 -31.75 C 66.671875 -32.945312 62.34375 -33.828125 56.4375 -34.390625 L 41.09375 -35.9375 C 29.988281 -37.0625 21.71875 -39.578125 16.28125 -43.484375 C 10.851562 -47.398438 8.140625 -53.035156 8.140625 -60.390625 C 8.140625 -65.816406 9.816406 -70.707031 13.171875 -75.0625 C 16.535156 -79.414062 21.347656 -82.867188 27.609375 -85.421875 C 33.878906 -87.984375 41.367188 -89.265625 50.078125 -89.265625 C 63.972656 -89.265625 74.675781 -86.707031 82.1875 -81.59375 C 89.695312 -76.476562 93.453125 -69.367188 93.453125 -60.265625 Z M 93.453125 -60.265625 "/></g></g></g><g clip-path="url(#3837f9319c)"><path fill="#ffffff" d="M 263.953125 130.148438 L 357.875 130.148438 L 357.875 228.472656 L 263.953125 228.472656 Z M 263.953125 130.148438 " fill-opacity="1" fill-rule="nonzero"/></g><g fill="#000000" fill-opacity="1"><g transform="translate(274.84941, 219.876394)"><g><path d="M 31.15625 0 L 31.15625 -56.4375 L 8.140625 -56.4375 L 8.140625 -70.5625 L 10.0625 -70.5625 C 17.007812 -70.5625 22.378906 -71.660156 26.171875 -73.859375 C 29.972656 -76.054688 32.429688 -79.710938 33.546875 -84.828125 L 51.640625 -84.828125 L 51.640625 0 Z M 31.15625 0 "/></g></g></g></svg>