<svg xmlns="http://www.w3.org/2000/svg" xmlns:xlink="http://www.w3.org/1999/xlink" width="500" zoomAndPan="magnify" viewBox="0 0 375 374.999991" height="500" preserveAspectRatio="xMidYMid meet" version="1.0"><defs><g/><clipPath id="009a72d0c0"><path d="M 14.390625 217 L 131.390625 217 L 131.390625 248 L 14.390625 248 Z M 14.390625 217 " clip-rule="nonzero"/></clipPath><clipPath id="954f641e99"><path d="M 21 144.8125 L 76 144.8125 L 76 228 L 21 228 Z M 21 144.8125 " clip-rule="nonzero"/></clipPath></defs><rect x="-37.5" width="450" fill="#ffffff" y="-37.499999" height="449.999989" fill-opacity="1"/><rect x="-37.5" width="450" fill="#000000" y="-37.499999" height="449.999989" fill-opacity="1"/><g clip-path="url(#009a72d0c0)"><path fill="#ffffff" d="M 131.378906 217.394531 L 14.472656 233.445312 C 14.886719 235.886719 15.390625 237.296875 15.992188 237.683594 C 16.652344 238.5625 17.53125 239.398438 18.625 240.191406 C 20.8125 241.777344 23.863281 243.191406 27.78125 244.4375 C 32.761719 245.960938 37.847656 246.976562 43.03125 247.484375 C 48.957031 248.066406 55.027344 247.980469 61.25 247.230469 C 73.46875 245.367188 84.753906 242.097656 95.105469 237.417969 C 102.738281 234.078125 114.832031 227.402344 131.378906 217.394531 " fill-opacity="1" fill-rule="nonzero"/></g><g clip-path="url(#954f641e99)"><path fill="#ffffff" d="M 21.589844 144.832031 L 26.175781 148.90625 C 31.988281 154.4375 36.582031 160.371094 39.957031 166.707031 C 41.644531 169.878906 43.027344 173.148438 44.105469 176.515625 L 45.496094 181.648438 C 46.339844 186.046875 46.738281 188.691406 46.699219 189.585938 C 46.882812 190.476562 46.875 193.109375 46.679688 197.480469 C 46.539062 199.222656 46.304688 200.960938 45.976562 202.6875 C 45.328125 206.144531 44.296875 209.578125 42.886719 212.992188 C 40.125 219.625 36.453125 224.503906 31.871094 227.621094 C 42.730469 223.621094 49.945312 220.660156 53.511719 218.742188 C 59.277344 215.648438 62.464844 213.777344 63.070312 213.128906 C 64.855469 211.867188 66.40625 210.589844 67.734375 209.304688 L 69.550781 207.367188 C 70.585938 206.101562 71.519531 204.761719 72.351562 203.34375 C 73.148438 201.925781 73.777344 200.425781 74.238281 198.847656 C 75.160156 195.683594 75.40625 192.195312 74.980469 188.382812 C 73.886719 178.496094 68.253906 169.542969 58.074219 161.515625 C 43.363281 151.039062 31.203125 145.476562 21.589844 144.832031 " fill-opacity="1" fill-rule="nonzero"/></g><path fill="#ffffff" d="M 69.179688 159.578125 L 69.054688 159.585938 C 68.761719 159.640625 68.769531 159.90625 69.082031 160.382812 C 72.679688 165.457031 75.066406 169.042969 76.234375 171.140625 C 77.386719 173.296875 78.277344 175.316406 78.90625 177.199219 C 80.390625 181.632812 80.71875 186.347656 79.886719 191.34375 C 78.734375 198.070312 74.898438 205.035156 68.378906 212.242188 C 62.039062 218.859375 55.578125 222.761719 49 223.953125 L 57.464844 224.351562 L 65.671875 223.523438 L 73.058594 222.21875 L 79.625 220.4375 L 85.375 218.1875 L 90.308594 215.464844 L 94.421875 212.265625 L 97.714844 208.597656 L 100.191406 204.453125 L 101.851562 199.835938 C 102.375 197.003906 102.207031 194.078125 101.351562 191.066406 C 100.921875 189.558594 100.324219 188.03125 99.550781 186.480469 C 99.378906 185.730469 97.835938 183.351562 94.914062 179.34375 C 93.636719 177.828125 90.359375 174.617188 85.082031 169.722656 C 83.039062 167.921875 81.085938 166.34375 79.226562 164.992188 C 75.503906 162.289062 72.15625 160.484375 69.179688 159.578125 " fill-opacity="1" fill-rule="nonzero"/><g fill="#ffffff" fill-opacity="1"><g transform="translate(107.001458, 206.653972)"><g><path d="M -0.828125 -30.109375 L 7.46875 -30.109375 L 16.125 -8.5 L 24.921875 -30.109375 L 33.171875 -30.109375 L 19.90625 0 L 12.28125 0 Z M -0.828125 -30.109375 "/></g></g></g><g fill="#ffffff" fill-opacity="1"><g transform="translate(139.341467, 206.653972)"><g><path d="M 19.78125 -30.890625 C 23.488281 -30.890625 26.679688 -30.234375 29.359375 -28.921875 C 32.035156 -27.609375 34.109375 -25.765625 35.578125 -23.390625 C 37.046875 -21.015625 37.78125 -18.234375 37.78125 -15.046875 C 37.78125 -11.867188 37.046875 -9.09375 35.578125 -6.71875 C 34.109375 -4.34375 32.035156 -2.5 29.359375 -1.1875 C 26.679688 0.125 23.488281 0.78125 19.78125 0.78125 C 16.101562 0.78125 12.910156 0.125 10.203125 -1.1875 C 7.492188 -2.5 5.40625 -4.34375 3.9375 -6.71875 C 2.46875 -9.09375 1.734375 -11.867188 1.734375 -15.046875 C 1.734375 -18.234375 2.46875 -21.015625 3.9375 -23.390625 C 5.40625 -25.765625 7.492188 -27.609375 10.203125 -28.921875 C 12.910156 -30.234375 16.101562 -30.890625 19.78125 -30.890625 Z M 19.78125 -24.71875 C 16.769531 -24.71875 14.390625 -23.859375 12.640625 -22.140625 C 10.898438 -20.429688 10.03125 -18.066406 10.03125 -15.046875 C 10.03125 -12.035156 10.898438 -9.671875 12.640625 -7.953125 C 14.390625 -6.242188 16.769531 -5.390625 19.78125 -5.390625 C 22.789062 -5.390625 25.160156 -6.242188 26.890625 -7.953125 C 28.617188 -9.671875 29.484375 -12.035156 29.484375 -15.046875 C 29.484375 -18.085938 28.617188 -20.457031 26.890625 -22.15625 C 25.160156 -23.863281 22.789062 -24.71875 19.78125 -24.71875 Z M 19.78125 -24.71875 "/></g></g></g><g fill="#ffffff" fill-opacity="1"><g transform="translate(178.854326, 206.653972)"><g><path d="M -0.828125 -30.109375 L 8.75 -30.109375 L 16.25 -19.359375 L 23.71875 -30.109375 L 33.265625 -30.109375 L 19.859375 -12.859375 L 19.859375 0 L 12.3125 0 L 12.3125 -12.859375 Z M -0.828125 -30.109375 "/></g></g></g><g fill="#ffffff" fill-opacity="1"><g transform="translate(211.27726, 206.653972)"><g><path d="M -0.828125 0 L 13.4375 -30.109375 L 20.65625 -30.109375 L 34.375 0 L 26 0 L 23.265625 -6.390625 L 10 -6.390625 L 7.296875 0 Z M 12.5625 -12.484375 L 20.53125 -12.484375 L 16.5 -21.765625 Z M 12.5625 -12.484375 "/></g></g></g><g fill="#ffffff" fill-opacity="1"><g transform="translate(244.81965, 206.653972)"><g><path d="M 36.703125 -19.703125 L 28.484375 -19.703125 C 27.128906 -23.046875 24.226562 -24.71875 19.78125 -24.71875 C 16.769531 -24.71875 14.390625 -23.859375 12.640625 -22.140625 C 10.898438 -20.429688 10.03125 -18.066406 10.03125 -15.046875 C 10.03125 -12.035156 10.898438 -9.671875 12.640625 -7.953125 C 14.390625 -6.242188 16.769531 -5.390625 19.78125 -5.390625 C 21.90625 -5.390625 23.734375 -5.835938 25.265625 -6.734375 C 26.804688 -7.640625 27.921875 -8.820312 28.609375 -10.28125 L 21.765625 -10.28125 L 21.765625 -16.46875 L 36.609375 -16.46875 L 36.609375 0 L 30.890625 0 L 30.484375 -3.40625 C 27.660156 -0.613281 23.953125 0.78125 19.359375 0.78125 C 15.929688 0.78125 12.890625 0.125 10.234375 -1.1875 C 7.585938 -2.5 5.507812 -4.34375 4 -6.71875 C 2.488281 -9.09375 1.734375 -11.867188 1.734375 -15.046875 C 1.734375 -18.234375 2.46875 -21.015625 3.9375 -23.390625 C 5.40625 -25.765625 7.492188 -27.609375 10.203125 -28.921875 C 12.910156 -30.234375 16.101562 -30.890625 19.78125 -30.890625 C 22.957031 -30.890625 25.757812 -30.40625 28.1875 -29.4375 C 30.625 -28.46875 32.582031 -27.140625 34.0625 -25.453125 C 35.539062 -23.773438 36.421875 -21.859375 36.703125 -19.703125 Z M 36.703125 -19.703125 "/></g></g></g><g fill="#ffffff" fill-opacity="1"><g transform="translate(284.622736, 206.653972)"><g><path d="M 3.359375 -30.109375 L 30.109375 -30.109375 L 30.109375 -23.921875 L 10.90625 -23.921875 L 10.90625 -18.90625 L 27.984375 -18.90625 L 27.984375 -12.734375 L 10.90625 -12.734375 L 10.90625 -6.171875 L 30.109375 -6.171875 L 30.109375 0 L 3.359375 0 Z M 3.359375 -30.109375 "/></g></g></g><g fill="#ffffff" fill-opacity="1"><g transform="translate(316.962744, 206.653972)"><g><path d="M 3.359375 0 L 3.359375 -30.109375 L 21.859375 -30.109375 C 25.785156 -30.109375 28.710938 -29.472656 30.640625 -28.203125 C 32.578125 -26.929688 33.546875 -24.867188 33.546875 -22.015625 C 33.546875 -20.242188 33.109375 -18.679688 32.234375 -17.328125 C 31.367188 -15.972656 30.148438 -14.992188 28.578125 -14.390625 C 29.648438 -13.941406 30.441406 -13.441406 30.953125 -12.890625 C 31.460938 -12.335938 31.804688 -11.664062 31.984375 -10.875 C 32.171875 -10.09375 32.289062 -9.125 32.34375 -7.96875 C 32.425781 -6.164062 32.535156 -4.59375 32.671875 -3.25 C 32.816406 -1.914062 33.25 -0.832031 33.96875 0 L 25.5 0 C 25.082031 -0.664062 24.875 -1.441406 24.875 -2.328125 L 24.875 -4.390625 C 24.875 -6.109375 24.75 -7.453125 24.5 -8.421875 C 24.257812 -9.390625 23.757812 -10.070312 23 -10.46875 C 22.238281 -10.875 21.109375 -11.078125 19.609375 -11.078125 L 10.90625 -11.078125 L 10.90625 0 Z M 10.90625 -23.921875 L 10.90625 -17.25 L 19.453125 -17.25 C 21.492188 -17.25 23.023438 -17.488281 24.046875 -17.96875 C 25.078125 -18.457031 25.59375 -19.40625 25.59375 -20.8125 C 25.59375 -21.78125 25.351562 -22.476562 24.875 -22.90625 C 24.40625 -23.332031 23.691406 -23.609375 22.734375 -23.734375 C 21.785156 -23.859375 20.578125 -23.921875 19.109375 -23.921875 Z M 10.90625 -23.921875 "/></g></g></g></svg>