<svg xmlns="http://www.w3.org/2000/svg" xmlns:xlink="http://www.w3.org/1999/xlink" width="500" zoomAndPan="magnify" viewBox="0 0 375 374.999991" height="500" preserveAspectRatio="xMidYMid meet" version="1.0"><defs><g/></defs><rect x="-37.5" width="450" fill="#ffffff" y="-37.499999" height="449.999989" fill-opacity="1"/><rect x="-37.5" width="450" fill="#000000" y="-37.499999" height="449.999989" fill-opacity="1"/><g fill="#ffffff" fill-opacity="1"><g transform="translate(41.155859, 172.416807)"><g><path d="M 50.140625 -32.328125 L 38.5 -32.328125 C 37.988281 -36.960938 34.175781 -39.28125 27.0625 -39.28125 C 23.675781 -39.28125 21.101562 -38.796875 19.34375 -37.828125 C 17.59375 -36.867188 16.71875 -35.570312 16.71875 -33.9375 C 16.71875 -32.226562 17.457031 -31.101562 18.9375 -30.5625 C 20.414062 -30.03125 22.820312 -29.59375 26.15625 -29.25 L 34.84375 -28.34375 C 40.707031 -27.707031 45.066406 -26.296875 47.921875 -24.109375 C 50.773438 -21.921875 52.203125 -18.769531 52.203125 -14.65625 C 52.203125 -9.550781 50.109375 -5.628906 45.921875 -2.890625 C 41.742188 -0.148438 35.566406 1.21875 27.390625 1.21875 C 19.503906 1.21875 13.515625 -0.210938 9.421875 -3.078125 C 5.328125 -5.953125 3.28125 -10.304688 3.28125 -16.140625 L 15.234375 -16.140625 C 15.191406 -10.484375 19.710938 -7.65625 28.796875 -7.65625 C 32.265625 -7.65625 34.910156 -8.15625 36.734375 -9.15625 C 38.554688 -10.164062 39.46875 -11.570312 39.46875 -13.375 C 39.46875 -15.164062 38.726562 -16.382812 37.25 -17.03125 C 35.769531 -17.675781 33.445312 -18.148438 30.28125 -18.453125 L 22.046875 -19.28125 C 16.085938 -19.882812 11.648438 -21.234375 8.734375 -23.328125 C 5.828125 -25.429688 4.375 -28.453125 4.375 -32.390625 C 4.375 -35.304688 5.269531 -37.929688 7.0625 -40.265625 C 8.863281 -42.609375 11.445312 -44.460938 14.8125 -45.828125 C 18.175781 -47.203125 22.195312 -47.890625 26.875 -47.890625 C 34.320312 -47.890625 40.0625 -46.515625 44.09375 -43.765625 C 48.125 -41.023438 50.140625 -37.210938 50.140625 -32.328125 Z M 50.140625 -32.328125 "/></g></g></g><g fill="#ffffff" fill-opacity="1"><g transform="translate(96.62735, 172.416807)"><g><path d="M 5.203125 -46.671875 L 20.3125 -46.671875 L 35.359375 -13.234375 L 50.78125 -46.671875 L 65.765625 -46.671875 L 65.765625 0 L 54.515625 0 L 54.515625 -31.171875 L 40.046875 0 L 30.34375 0 L 16.453125 -31.6875 L 16.453125 0 L 5.203125 0 Z M 5.203125 -46.671875 "/></g></g></g><g fill="#ffffff" fill-opacity="1"><g transform="translate(167.589732, 172.416807)"><g><path d="M -1.28125 0 L 20.828125 -46.671875 L 32.015625 -46.671875 L 53.296875 0 L 40.296875 0 L 36.0625 -9.90625 L 15.484375 -9.90625 L 11.3125 0 Z M 19.484375 -19.34375 L 31.8125 -19.34375 L 25.578125 -33.75 Z M 19.484375 -19.34375 "/></g></g></g><g fill="#ffffff" fill-opacity="1"><g transform="translate(219.590236, 172.416807)"><g><path d="M 5.203125 -46.671875 L 19.609375 -46.671875 L 42.9375 -13.75 L 42.9375 -46.671875 L 54.1875 -46.671875 L 54.1875 0 L 39.984375 0 L 16.453125 -33.234375 L 16.453125 0 L 5.203125 0 Z M 5.203125 -46.671875 "/></g></g></g><path fill="#ffffff" d="M 286.953125 130.90625 L 329.074219 130.90625 L 329.074219 170.523438 L 286.953125 170.523438 L 286.953125 130.90625 " fill-opacity="1" fill-rule="nonzero"/><g fill="#000000" fill-opacity="1"><g transform="translate(298.970814, 158.318411)"><g><path d="M 7.8125 0 L 7.8125 -14.140625 L 2.046875 -14.140625 L 2.046875 -17.6875 L 2.515625 -17.6875 C 4.265625 -17.6875 5.613281 -17.960938 6.5625 -18.515625 C 7.507812 -19.066406 8.125 -19.984375 8.40625 -21.265625 L 12.9375 -21.265625 L 12.9375 0 Z M 7.8125 0 "/></g></g></g><g fill="#ffffff" fill-opacity="1"><g transform="translate(33.844144, 238.304561)"><g><path d="M 64.59375 -33.390625 L 50.265625 -33.390625 C 48.523438 -39.898438 43.285156 -43.15625 34.546875 -43.15625 C 29.285156 -43.15625 25.132812 -41.660156 22.09375 -38.671875 C 19.050781 -35.679688 17.53125 -31.554688 17.53125 -26.296875 C 17.53125 -21.023438 19.050781 -16.894531 22.09375 -13.90625 C 25.132812 -10.914062 29.285156 -9.421875 34.546875 -9.421875 C 39.179688 -9.421875 42.875 -10.394531 45.625 -12.34375 C 48.375 -14.300781 49.96875 -16.992188 50.40625 -20.421875 L 64.8125 -20.421875 C 64.382812 -16.128906 62.863281 -12.335938 60.25 -9.046875 C 57.644531 -5.765625 54.15625 -3.207031 49.78125 -1.375 C 45.414062 0.457031 40.335938 1.375 34.546875 1.375 C 28.117188 1.375 22.539062 0.226562 17.8125 -2.0625 C 13.082031 -4.351562 9.4375 -7.570312 6.875 -11.71875 C 4.320312 -15.875 3.046875 -20.734375 3.046875 -26.296875 C 3.046875 -31.847656 4.320312 -36.695312 6.875 -40.84375 C 9.4375 -45 13.082031 -48.222656 17.8125 -50.515625 C 22.539062 -52.804688 28.117188 -53.953125 34.546875 -53.953125 C 40.335938 -53.953125 45.40625 -53.054688 49.75 -51.265625 C 54.09375 -49.484375 57.546875 -47.046875 60.109375 -43.953125 C 62.671875 -40.867188 64.164062 -37.347656 64.59375 -33.390625 Z M 64.59375 -33.390625 "/></g></g></g><g fill="#ffffff" fill-opacity="1"><g transform="translate(101.705993, 238.304561)"><g><path d="M 19.265625 -52.578125 L 19.265625 0 L 6.078125 0 L 6.078125 -52.578125 Z M 19.265625 -52.578125 "/></g></g></g><g fill="#ffffff" fill-opacity="1"><g transform="translate(127.0546, 238.304561)"><g><path d="M 19.046875 -52.578125 L 19.046875 -10.796875 L 46.0625 -10.796875 L 46.0625 0 L 5.859375 0 L 5.859375 -52.578125 Z M 19.046875 -52.578125 "/></g></g></g><g fill="#ffffff" fill-opacity="1"><g transform="translate(175.289393, 238.304561)"><g><path d="M 19.265625 -52.578125 L 19.265625 0 L 6.078125 0 L 6.078125 -52.578125 Z M 19.265625 -52.578125 "/></g></g></g><g fill="#ffffff" fill-opacity="1"><g transform="translate(200.637999, 238.304561)"><g><path d="M 19.046875 -52.578125 L 19.046875 -10.796875 L 46.0625 -10.796875 L 46.0625 0 L 5.859375 0 L 5.859375 -52.578125 Z M 19.046875 -52.578125 "/></g></g></g><g fill="#ffffff" fill-opacity="1"><g transform="translate(248.872793, 238.304561)"><g><path d="M 19.265625 -52.578125 L 19.265625 0 L 6.078125 0 L 6.078125 -52.578125 Z M 19.265625 -52.578125 "/></g></g></g><g fill="#ffffff" fill-opacity="1"><g transform="translate(274.221399, 238.304561)"><g><path d="M 5.859375 -52.578125 L 22.09375 -52.578125 L 48.375 -15.5 L 48.375 -52.578125 L 61.046875 -52.578125 L 61.046875 0 L 45.046875 0 L 18.546875 -37.4375 L 18.546875 0 L 5.859375 0 Z M 5.859375 -52.578125 "/></g></g></g></svg>