<svg xmlns="http://www.w3.org/2000/svg" xmlns:xlink="http://www.w3.org/1999/xlink" width="500" zoomAndPan="magnify" viewBox="0 0 375 374.999991" height="500" preserveAspectRatio="xMidYMid meet" version="1.0"><defs><g/></defs><rect x="-37.5" width="450" fill="#ffffff" y="-37.499999" height="449.999989" fill-opacity="1"/><rect x="-37.5" width="450" fill="#000000" y="-37.499999" height="449.999989" fill-opacity="1"/><g fill="#ffffff" fill-opacity="1"><g transform="translate(40.111111, 235.30768)"><g><path d="M 11.21875 -92.015625 C 9.21875 -97.285156 7.191406 -101.132812 5.140625 -103.5625 C 3.085938 -105.988281 1.164062 -107.625 -0.625 -108.46875 L -0.625 -110.671875 L 28.453125 -110.671875 L 28.453125 -108.46875 C 25.816406 -107.625 24.816406 -105.988281 25.453125 -103.5625 C 26.085938 -101.132812 27.40625 -97.285156 29.40625 -92.015625 L 58.5 -18.1875 L 87.125 -92.015625 C 89.226562 -97.285156 90.039062 -101.1875 89.5625 -103.71875 C 89.09375 -106.25 87.488281 -107.832031 84.75 -108.46875 L 84.75 -110.671875 L 103.09375 -110.671875 L 103.09375 -108.46875 C 100.769531 -107.625 98.550781 -105.988281 96.4375 -103.5625 C 94.332031 -101.132812 92.226562 -97.285156 90.125 -92.015625 L 54.390625 0 L 48.375 0 Z M 11.21875 -92.015625 "/></g></g></g><g fill="#ffffff" fill-opacity="1"><g transform="translate(142.566019, 235.30768)"><g><path d="M 29.09375 0 L 29.09375 -2.21875 C 31.726562 -3.0625 33.441406 -4.828125 34.234375 -7.515625 C 35.023438 -10.203125 35.421875 -14.390625 35.421875 -20.078125 L 35.265625 -50.75 L 11.859375 -93.125 C 9.222656 -98.082031 6.664062 -101.664062 4.1875 -103.875 C 1.707031 -106.09375 -0.425781 -107.625 -2.21875 -108.46875 L -2.21875 -110.671875 L 27.359375 -110.671875 L 27.359375 -108.46875 C 24.722656 -107.625 23.957031 -106.09375 25.0625 -103.875 C 26.164062 -101.664062 28.085938 -98.082031 30.828125 -93.125 L 51.703125 -55.5 L 73.046875 -93.125 C 75.785156 -98.082031 76.992188 -101.71875 76.671875 -104.03125 C 76.359375 -106.351562 74.570312 -107.832031 71.3125 -108.46875 L 71.3125 -110.671875 L 91.703125 -110.671875 L 91.703125 -108.46875 C 89.378906 -107.625 86.898438 -106.09375 84.265625 -103.875 C 81.628906 -101.664062 78.941406 -98.082031 76.203125 -93.125 L 52.328125 -50.59375 L 52.328125 -20.078125 C 52.328125 -14.390625 52.722656 -10.203125 53.515625 -7.515625 C 54.304688 -4.828125 56.019531 -3.0625 58.65625 -2.21875 L 58.65625 0 Z M 29.09375 0 "/></g></g></g><g fill="#ffffff" fill-opacity="1"><g transform="translate(231.581615, 235.30768)"><g><path d="M 68.140625 1.578125 C 56.023438 1.578125 45.507812 -0.789062 36.59375 -5.53125 C 27.6875 -10.28125 20.78125 -16.972656 15.875 -25.609375 C 10.976562 -34.253906 8.53125 -44.320312 8.53125 -55.8125 C 8.53125 -63.40625 9.953125 -70.570312 12.796875 -77.3125 C 15.648438 -84.0625 19.6875 -90.015625 24.90625 -95.171875 C 30.125 -100.335938 36.394531 -104.394531 43.71875 -107.34375 C 51.039062 -110.300781 59.128906 -111.78125 67.984375 -111.78125 C 71.253906 -111.78125 75.050781 -111.515625 79.375 -110.984375 C 83.695312 -110.460938 87.910156 -109.644531 92.015625 -108.53125 C 96.128906 -107.425781 99.554688 -105.925781 102.296875 -104.03125 L 102.921875 -83.171875 L 101.03125 -82.6875 C 98.925781 -88.164062 95.816406 -92.828125 91.703125 -96.671875 C 87.585938 -100.523438 82.945312 -103.503906 77.78125 -105.609375 C 72.625 -107.722656 67.410156 -108.78125 62.140625 -108.78125 C 55.285156 -108.78125 49.0625 -107.222656 43.46875 -104.109375 C 37.882812 -101.003906 33.457031 -96.316406 30.1875 -90.046875 C 26.925781 -83.773438 25.242188 -75.84375 25.140625 -66.25 C 25.035156 -58.757812 26.0625 -51.242188 28.21875 -43.703125 C 30.382812 -36.171875 33.546875 -29.269531 37.703125 -23 C 41.867188 -16.726562 46.957031 -11.695312 52.96875 -7.90625 C 58.976562 -4.113281 65.773438 -2.21875 73.359375 -2.21875 C 78.316406 -2.21875 82.875 -3.242188 87.03125 -5.296875 C 91.195312 -7.347656 94.28125 -10.328125 96.28125 -14.234375 L 96.28125 -28.625 C 96.28125 -34.84375 95.753906 -39.269531 94.703125 -41.90625 C 93.648438 -44.539062 91.4375 -46.332031 88.0625 -47.28125 L 88.0625 -49.484375 L 112.578125 -49.484375 L 112.578125 -20.390625 C 108.671875 -15.234375 104.082031 -11.046875 98.8125 -7.828125 C 93.539062 -4.609375 88.21875 -2.234375 82.84375 -0.703125 C 77.46875 0.816406 72.566406 1.578125 68.140625 1.578125 Z M 68.140625 1.578125 "/></g></g></g><g fill="#ffffff" fill-opacity="1"><g transform="translate(56.525156, 297.462304)"><g><path d="M -0.28125 -33.40625 L 4.78125 -33.40625 L 17.125 -4.28125 L 29.40625 -33.40625 L 34.5625 -33.40625 L 19.78125 0 L 14.359375 0 Z M -0.28125 -33.40625 "/></g></g></g><g fill="#ffffff" fill-opacity="1"><g transform="translate(90.803124, 297.462304)"><g><path d="M 3.8125 0 L 3.8125 -33.40625 L 30.375 -33.40625 L 30.375 -29.03125 L 8.5625 -29.03125 L 8.5625 -19.28125 L 29.03125 -19.28125 L 29.03125 -14.90625 L 8.5625 -14.90625 L 8.5625 -4.375 L 30.6875 -4.375 L 30.6875 0 Z M 3.8125 0 "/></g></g></g><g fill="#ffffff" fill-opacity="1"><g transform="translate(123.700773, 297.462304)"><g><path d="M 3.8125 -33.40625 L 10.171875 -33.40625 L 31.203125 -4.921875 L 31.203125 -33.40625 L 35.796875 -33.40625 L 35.796875 0 L 29.40625 0 L 8.421875 -28.484375 L 8.421875 0 L 3.8125 0 Z M 3.8125 -33.40625 "/></g></g></g><g fill="#ffffff" fill-opacity="1"><g transform="translate(163.31598, 297.462304)"><g><path d="M 0 -33.40625 L 30.234375 -33.40625 L 30.234375 -29.03125 L 17.484375 -29.03125 L 17.484375 0 L 12.75 0 L 12.75 -29.03125 L 0 -29.03125 Z M 0 -33.40625 "/></g></g></g><g fill="#ffffff" fill-opacity="1"><g transform="translate(193.545003, 297.462304)"><g><path d="M 3.8125 -33.40625 L 8.5625 -33.40625 L 8.5625 -14.453125 C 8.5625 -10.796875 9.359375 -8.054688 10.953125 -6.234375 C 12.546875 -4.410156 15.078125 -3.5 18.546875 -3.5 C 22.046875 -3.5 24.597656 -4.410156 26.203125 -6.234375 C 27.816406 -8.054688 28.625 -10.796875 28.625 -14.453125 L 28.625 -33.40625 L 33.359375 -33.40625 L 33.359375 -12.46875 C 33.359375 -8.113281 32.109375 -4.800781 29.609375 -2.53125 C 27.109375 -0.257812 23.4375 0.875 18.59375 0.875 C 13.769531 0.875 10.097656 -0.257812 7.578125 -2.53125 C 5.066406 -4.800781 3.8125 -8.113281 3.8125 -12.46875 Z M 3.8125 -33.40625 "/></g></g></g><g fill="#ffffff" fill-opacity="1"><g transform="translate(230.721644, 297.462304)"><g><path d="M 3.8125 0 L 3.8125 -33.40625 L 21.390625 -33.40625 C 25.285156 -33.40625 28.238281 -32.625 30.25 -31.0625 C 32.257812 -29.5 33.265625 -27.242188 33.265625 -24.296875 C 33.265625 -20.066406 31.347656 -17.335938 27.515625 -16.109375 C 28.742188 -15.890625 29.71875 -15.523438 30.4375 -15.015625 C 31.15625 -14.515625 31.691406 -13.734375 32.046875 -12.671875 C 32.398438 -11.617188 32.640625 -10.09375 32.765625 -8.09375 C 32.921875 -5.882812 33.085938 -4.101562 33.265625 -2.75 C 33.453125 -1.40625 33.789062 -0.488281 34.28125 0 L 28.765625 0 C 28.546875 -0.488281 28.378906 -1.21875 28.265625 -2.1875 C 28.160156 -3.15625 28.050781 -4.523438 27.9375 -6.296875 C 27.8125 -8.484375 27.546875 -10.15625 27.140625 -11.3125 C 26.742188 -12.476562 26.078125 -13.273438 25.140625 -13.703125 C 24.210938 -14.140625 22.84375 -14.359375 21.03125 -14.359375 L 8.5625 -14.359375 L 8.5625 0 Z M 8.5625 -29.5 L 8.5625 -18.265625 L 19.515625 -18.265625 C 22.578125 -18.265625 24.84375 -18.671875 26.3125 -19.484375 C 27.789062 -20.296875 28.53125 -21.773438 28.53125 -23.921875 C 28.53125 -26.191406 27.757812 -27.6875 26.21875 -28.40625 C 24.6875 -29.132812 22.3125 -29.5 19.09375 -29.5 Z M 8.5625 -29.5 "/></g></g></g><g fill="#ffffff" fill-opacity="1"><g transform="translate(267.208132, 297.462304)"><g><path d="M 3.8125 0 L 3.8125 -33.40625 L 30.375 -33.40625 L 30.375 -29.03125 L 8.5625 -29.03125 L 8.5625 -19.28125 L 29.03125 -19.28125 L 29.03125 -14.90625 L 8.5625 -14.90625 L 8.5625 -4.375 L 30.6875 -4.375 L 30.6875 0 Z M 3.8125 0 "/></g></g></g><g fill="#ffffff" fill-opacity="1"><g transform="translate(300.105769, 297.462304)"><g><path d="M 30.78125 -23.703125 L 26.09375 -23.703125 C 25.9375 -25.847656 25.128906 -27.414062 23.671875 -28.40625 C 22.210938 -29.40625 20.03125 -29.90625 17.125 -29.90625 C 14.238281 -29.90625 12.054688 -29.445312 10.578125 -28.53125 C 9.109375 -27.613281 8.375 -26.3125 8.375 -24.625 C 8.375 -23.269531 8.859375 -22.269531 9.828125 -21.625 C 10.796875 -20.976562 12.289062 -20.457031 14.3125 -20.0625 L 21.625 -18.640625 C 23.988281 -18.203125 25.9375 -17.628906 27.46875 -16.921875 C 29 -16.222656 30.140625 -15.289062 30.890625 -14.125 C 31.648438 -12.957031 32.03125 -11.441406 32.03125 -9.578125 C 32.03125 -6.347656 30.785156 -3.796875 28.296875 -1.921875 C 25.816406 -0.0546875 22.226562 0.875 17.53125 0.875 C 12.53125 0.875 8.738281 -0.148438 6.15625 -2.203125 C 3.582031 -4.265625 2.296875 -7.289062 2.296875 -11.28125 L 7.3125 -11.28125 C 7.5 -6.09375 11 -3.5 17.8125 -3.5 C 20.8125 -3.5 23.101562 -4.003906 24.6875 -5.015625 C 26.269531 -6.023438 27.0625 -7.40625 27.0625 -9.15625 C 27.0625 -10.539062 26.597656 -11.59375 25.671875 -12.3125 C 24.753906 -13.03125 23.300781 -13.554688 21.3125 -13.890625 L 13.0625 -15.375 C 9.8125 -15.957031 7.390625 -16.945312 5.796875 -18.34375 C 4.203125 -19.738281 3.40625 -21.691406 3.40625 -24.203125 C 3.40625 -27.328125 4.59375 -29.785156 6.96875 -31.578125 C 9.34375 -33.378906 12.847656 -34.28125 17.484375 -34.28125 C 21.773438 -34.28125 25.0625 -33.359375 27.34375 -31.515625 C 29.632812 -29.679688 30.78125 -27.078125 30.78125 -23.703125 Z M 30.78125 -23.703125 "/></g></g></g></svg>