<svg xmlns="http://www.w3.org/2000/svg" xmlns:xlink="http://www.w3.org/1999/xlink" width="250" zoomAndPan="magnify" viewBox="0 0 187.5 187.499992" height="250" preserveAspectRatio="xMidYMid meet" version="1.0"><defs><g/></defs><g fill="#ffffff" fill-opacity="1"><g transform="translate(29.218959, 69.453278)"><g><path d="M -0.359375 -13.296875 L 3.296875 -13.296875 L 7.125 -3.75 L 11 -13.296875 L 14.65625 -13.296875 L 8.796875 0 L 5.421875 0 Z M -0.359375 -13.296875 "/></g></g></g><g fill="#ffffff" fill-opacity="1"><g transform="translate(43.504335, 69.453278)"><g><path d="M 0.65625 -4.96875 C 0.65625 -6.050781 0.90625 -6.984375 1.40625 -7.765625 C 1.90625 -8.554688 2.625 -9.164062 3.5625 -9.59375 C 4.507812 -10.03125 5.632812 -10.25 6.9375 -10.25 C 8.257812 -10.25 9.382812 -10.03125 10.3125 -9.59375 C 11.25 -9.164062 11.960938 -8.554688 12.453125 -7.765625 C 12.953125 -6.984375 13.203125 -6.050781 13.203125 -4.96875 C 13.203125 -3.875 12.953125 -2.929688 12.453125 -2.140625 C 11.953125 -1.347656 11.234375 -0.734375 10.296875 -0.296875 C 9.367188 0.128906 8.25 0.34375 6.9375 0.34375 C 5.644531 0.34375 4.523438 0.128906 3.578125 -0.296875 C 2.640625 -0.734375 1.914062 -1.347656 1.40625 -2.140625 C 0.90625 -2.929688 0.65625 -3.875 0.65625 -4.96875 Z M 3.984375 -4.9375 C 3.984375 -4.070312 4.253906 -3.367188 4.796875 -2.828125 C 5.335938 -2.285156 6.050781 -2.015625 6.9375 -2.015625 C 7.820312 -2.015625 8.53125 -2.285156 9.0625 -2.828125 C 9.601562 -3.378906 9.875 -4.09375 9.875 -4.96875 C 9.875 -5.832031 9.601562 -6.535156 9.0625 -7.078125 C 8.53125 -7.617188 7.820312 -7.890625 6.9375 -7.890625 C 6.050781 -7.890625 5.335938 -7.613281 4.796875 -7.0625 C 4.253906 -6.519531 3.984375 -5.8125 3.984375 -4.9375 Z M 3.984375 -4.9375 "/></g></g></g><g fill="#ffffff" fill-opacity="1"><g transform="translate(57.368482, 69.453278)"><g><path d="M -0.1875 -9.90625 L 3.234375 -9.90625 L 5.890625 -3.53125 L 8.765625 -9.90625 L 12.15625 -9.90625 L 6.59375 1.453125 C 6.332031 1.984375 6.0625 2.398438 5.78125 2.703125 C 5.5 3.003906 5.171875 3.210938 4.796875 3.328125 C 4.429688 3.441406 3.976562 3.5 3.4375 3.5 L 1.3125 3.5 L 1.3125 1.140625 L 3.125 1.140625 C 3.519531 1.140625 3.804688 1.019531 3.984375 0.78125 C 4.171875 0.539062 4.265625 0.273438 4.265625 -0.015625 C 4.265625 -0.140625 4.25 -0.269531 4.21875 -0.40625 C 4.195312 -0.539062 4.140625 -0.703125 4.046875 -0.890625 Z M -0.1875 -9.90625 "/></g></g></g><g fill="#ffffff" fill-opacity="1"><g transform="translate(69.346221, 69.453278)"><g><path d="M 4.90625 -6.625 L 1.71875 -6.625 C 1.71875 -7.800781 2.191406 -8.695312 3.140625 -9.3125 C 4.097656 -9.9375 5.5 -10.25 7.34375 -10.25 C 8.007812 -10.25 8.648438 -10.203125 9.265625 -10.109375 C 9.878906 -10.015625 10.425781 -9.832031 10.90625 -9.5625 C 11.382812 -9.289062 11.757812 -8.910156 12.03125 -8.421875 C 12.3125 -7.929688 12.453125 -7.296875 12.453125 -6.515625 L 12.453125 -1.59375 C 12.453125 -1.25 12.484375 -0.96875 12.546875 -0.75 C 12.609375 -0.53125 12.726562 -0.351562 12.90625 -0.21875 L 12.90625 0 L 9.515625 0 L 9.375 -1.078125 C 8.8125 -0.578125 8.191406 -0.21875 7.515625 0 C 6.847656 0.226562 6.085938 0.34375 5.234375 0.34375 C 3.828125 0.34375 2.738281 0.0390625 1.96875 -0.5625 C 1.207031 -1.164062 0.828125 -1.957031 0.828125 -2.9375 C 0.828125 -3.957031 1.21875 -4.679688 2 -5.109375 C 2.78125 -5.546875 3.957031 -5.828125 5.53125 -5.953125 C 6.382812 -6.023438 7.097656 -6.082031 7.671875 -6.125 C 8.253906 -6.164062 8.695312 -6.257812 9 -6.40625 C 9.300781 -6.550781 9.453125 -6.804688 9.453125 -7.171875 C 9.453125 -7.921875 8.6875 -8.296875 7.15625 -8.296875 C 6.414062 -8.296875 5.851562 -8.164062 5.46875 -7.90625 C 5.09375 -7.644531 4.90625 -7.21875 4.90625 -6.625 Z M 9.453125 -4.78125 C 9.128906 -4.601562 8.753906 -4.488281 8.328125 -4.4375 C 7.910156 -4.382812 7.445312 -4.328125 6.9375 -4.265625 C 6.070312 -4.179688 5.410156 -4.066406 4.953125 -3.921875 C 4.503906 -3.785156 4.28125 -3.476562 4.28125 -3 C 4.28125 -2.625 4.429688 -2.316406 4.734375 -2.078125 C 5.035156 -1.847656 5.441406 -1.734375 5.953125 -1.734375 C 7.003906 -1.734375 7.847656 -1.988281 8.484375 -2.5 C 9.128906 -3.007812 9.453125 -3.65625 9.453125 -4.4375 Z M 9.453125 -4.78125 "/></g></g></g><g fill="#ffffff" fill-opacity="1"><g transform="translate(83.08216, 69.453278)"><g><path d="M 9.8125 -9.90625 L 12.890625 -9.90625 L 12.890625 -0.984375 C 12.890625 0.546875 12.34375 1.675781 11.25 2.40625 C 10.164062 3.132812 8.6875 3.5 6.8125 3.5 C 5.0625 3.5 3.742188 3.21875 2.859375 2.65625 C 1.972656 2.09375 1.53125 1.226562 1.53125 0.0625 L 4.59375 0.0625 C 4.59375 0.882812 5.335938 1.296875 6.828125 1.296875 C 7.929688 1.296875 8.703125 1.132812 9.140625 0.8125 C 9.585938 0.488281 9.8125 -0.0976562 9.8125 -0.953125 L 9.8125 -1.625 C 9.394531 -1.207031 8.898438 -0.898438 8.328125 -0.703125 C 7.753906 -0.515625 7.101562 -0.421875 6.375 -0.421875 C 5.238281 -0.421875 4.238281 -0.625 3.375 -1.03125 C 2.519531 -1.4375 1.851562 -2.007812 1.375 -2.75 C 0.894531 -3.488281 0.65625 -4.34375 0.65625 -5.3125 C 0.65625 -6.257812 0.894531 -7.101562 1.375 -7.84375 C 1.851562 -8.59375 2.515625 -9.179688 3.359375 -9.609375 C 4.210938 -10.035156 5.195312 -10.25 6.3125 -10.25 C 7.789062 -10.25 8.957031 -9.84375 9.8125 -9.03125 Z M 9.8125 -5.3125 C 9.8125 -6.101562 9.550781 -6.75 9.03125 -7.25 C 8.519531 -7.757812 7.8125 -8.015625 6.90625 -8.015625 C 6.007812 -8.015625 5.296875 -7.765625 4.765625 -7.265625 C 4.242188 -6.765625 3.984375 -6.113281 3.984375 -5.3125 C 3.984375 -4.488281 4.242188 -3.835938 4.765625 -3.359375 C 5.296875 -2.890625 6.007812 -2.65625 6.90625 -2.65625 C 7.8125 -2.65625 8.519531 -2.894531 9.03125 -3.375 C 9.550781 -3.863281 9.8125 -4.507812 9.8125 -5.3125 Z M 9.8125 -5.3125 "/></g></g></g><g fill="#ffffff" fill-opacity="1"><g transform="translate(97.221025, 69.453278)"><g><path d="M 12.4375 -3.21875 C 12.019531 -2.09375 11.3125 -1.21875 10.3125 -0.59375 C 9.320312 0.03125 8.09375 0.34375 6.625 0.34375 C 5.40625 0.34375 4.347656 0.128906 3.453125 -0.296875 C 2.554688 -0.734375 1.863281 -1.347656 1.375 -2.140625 C 0.894531 -2.929688 0.65625 -3.875 0.65625 -4.96875 C 0.65625 -6.050781 0.894531 -6.984375 1.375 -7.765625 C 1.851562 -8.554688 2.539062 -9.164062 3.4375 -9.59375 C 4.332031 -10.03125 5.394531 -10.25 6.625 -10.25 C 8.539062 -10.25 10.015625 -9.757812 11.046875 -8.78125 C 12.078125 -7.800781 12.59375 -6.398438 12.59375 -4.578125 L 12.59375 -4.15625 L 4.125 -4.15625 C 4.125 -3.4375 4.359375 -2.859375 4.828125 -2.421875 C 5.296875 -1.992188 5.894531 -1.78125 6.625 -1.78125 C 7.21875 -1.78125 7.722656 -1.90625 8.140625 -2.15625 C 8.554688 -2.414062 8.859375 -2.769531 9.046875 -3.21875 Z M 4.21875 -6.203125 L 9.1875 -6.203125 C 9.144531 -6.816406 8.898438 -7.300781 8.453125 -7.65625 C 8.003906 -8.019531 7.421875 -8.203125 6.703125 -8.203125 C 5.992188 -8.203125 5.414062 -8.019531 4.96875 -7.65625 C 4.519531 -7.300781 4.269531 -6.816406 4.21875 -6.203125 Z M 4.21875 -6.203125 "/></g></g></g><g fill="#ffffff" fill-opacity="1"><g transform="translate(110.480789, 69.453278)"><g><path d="M 4.328125 -9.90625 L 4.328125 -8.609375 C 5.234375 -9.703125 6.234375 -10.25 7.328125 -10.25 C 7.429688 -10.25 7.566406 -10.242188 7.734375 -10.234375 C 7.910156 -10.222656 8.0625 -10.207031 8.1875 -10.1875 L 8.1875 -7.578125 C 8.101562 -7.585938 7.960938 -7.597656 7.765625 -7.609375 C 7.566406 -7.617188 7.382812 -7.625 7.21875 -7.625 C 6.320312 -7.625 5.613281 -7.34375 5.09375 -6.78125 C 4.582031 -6.21875 4.328125 -5.4375 4.328125 -4.4375 L 4.328125 0 L 1.25 0 L 1.25 -9.90625 Z M 4.328125 -9.90625 "/></g></g></g><g fill="#a6a6a6" fill-opacity="1"><g transform="translate(29.218959, 87.317045)"><g><path d="M 12.4375 -3.21875 C 12.019531 -2.09375 11.3125 -1.21875 10.3125 -0.59375 C 9.320312 0.03125 8.09375 0.34375 6.625 0.34375 C 5.40625 0.34375 4.347656 0.128906 3.453125 -0.296875 C 2.554688 -0.734375 1.863281 -1.347656 1.375 -2.140625 C 0.894531 -2.929688 0.65625 -3.875 0.65625 -4.96875 C 0.65625 -6.050781 0.894531 -6.984375 1.375 -7.765625 C 1.851562 -8.554688 2.539062 -9.164062 3.4375 -9.59375 C 4.332031 -10.03125 5.394531 -10.25 6.625 -10.25 C 8.539062 -10.25 10.015625 -9.757812 11.046875 -8.78125 C 12.078125 -7.800781 12.59375 -6.398438 12.59375 -4.578125 L 12.59375 -4.15625 L 4.125 -4.15625 C 4.125 -3.4375 4.359375 -2.859375 4.828125 -2.421875 C 5.296875 -1.992188 5.894531 -1.78125 6.625 -1.78125 C 7.21875 -1.78125 7.722656 -1.90625 8.140625 -2.15625 C 8.554688 -2.414062 8.859375 -2.769531 9.046875 -3.21875 Z M 4.21875 -6.203125 L 9.1875 -6.203125 C 9.144531 -6.816406 8.898438 -7.300781 8.453125 -7.65625 C 8.003906 -8.019531 7.421875 -8.203125 6.703125 -8.203125 C 5.992188 -8.203125 5.414062 -8.019531 4.96875 -7.65625 C 4.519531 -7.300781 4.269531 -6.816406 4.21875 -6.203125 Z M 4.21875 -6.203125 "/></g></g></g><g fill="#a6a6a6" fill-opacity="1"><g transform="translate(42.478724, 87.317045)"><g><path d="M 0.296875 -9.90625 L 4.140625 -9.90625 L 6.078125 -7.265625 L 8.109375 -9.90625 L 12.09375 -9.90625 L 7.859375 -4.96875 L 12.375 0 L 8.296875 0 L 6.03125 -2.765625 L 3.84375 0 L -0.1875 0 L 4.1875 -5.046875 Z M 0.296875 -9.90625 "/></g></g></g><g fill="#a6a6a6" fill-opacity="1"><g transform="translate(54.676235, 87.317045)"><g><path d="M 4.328125 -9.90625 L 4.328125 -8.9375 C 4.710938 -9.34375 5.191406 -9.660156 5.765625 -9.890625 C 6.347656 -10.128906 7.039062 -10.25 7.84375 -10.25 C 8.945312 -10.25 9.921875 -10.023438 10.765625 -9.578125 C 11.617188 -9.128906 12.285156 -8.503906 12.765625 -7.703125 C 13.242188 -6.898438 13.484375 -5.988281 13.484375 -4.96875 C 13.484375 -3.925781 13.238281 -3.003906 12.75 -2.203125 C 12.269531 -1.398438 11.601562 -0.773438 10.75 -0.328125 C 9.894531 0.117188 8.90625 0.34375 7.78125 0.34375 C 7.050781 0.34375 6.398438 0.226562 5.828125 0 C 5.253906 -0.238281 4.753906 -0.582031 4.328125 -1.03125 L 4.328125 3.5 L 1.25 3.5 L 1.25 -9.90625 Z M 7.25 -7.890625 C 6.363281 -7.890625 5.65625 -7.613281 5.125 -7.0625 C 4.59375 -6.519531 4.328125 -5.8125 4.328125 -4.9375 C 4.328125 -4.082031 4.585938 -3.378906 5.109375 -2.828125 C 5.628906 -2.285156 6.335938 -2.015625 7.234375 -2.015625 C 8.117188 -2.015625 8.820312 -2.285156 9.34375 -2.828125 C 9.875 -3.378906 10.140625 -4.09375 10.140625 -4.96875 C 10.140625 -5.832031 9.875 -6.535156 9.34375 -7.078125 C 8.820312 -7.617188 8.125 -7.890625 7.25 -7.890625 Z M 7.25 -7.890625 "/></g></g></g><g fill="#a6a6a6" fill-opacity="1"><g transform="translate(68.8151, 87.317045)"><g><path d="M 4.5 -13.296875 L 4.5 0 L 1.421875 0 L 1.421875 -13.296875 Z M 4.5 -13.296875 "/></g></g></g><g fill="#a6a6a6" fill-opacity="1"><g transform="translate(74.749029, 87.317045)"><g><path d="M 0.65625 -4.96875 C 0.65625 -6.050781 0.90625 -6.984375 1.40625 -7.765625 C 1.90625 -8.554688 2.625 -9.164062 3.5625 -9.59375 C 4.507812 -10.03125 5.632812 -10.25 6.9375 -10.25 C 8.257812 -10.25 9.382812 -10.03125 10.3125 -9.59375 C 11.25 -9.164062 11.960938 -8.554688 12.453125 -7.765625 C 12.953125 -6.984375 13.203125 -6.050781 13.203125 -4.96875 C 13.203125 -3.875 12.953125 -2.929688 12.453125 -2.140625 C 11.953125 -1.347656 11.234375 -0.734375 10.296875 -0.296875 C 9.367188 0.128906 8.25 0.34375 6.9375 0.34375 C 5.644531 0.34375 4.523438 0.128906 3.578125 -0.296875 C 2.640625 -0.734375 1.914062 -1.347656 1.40625 -2.140625 C 0.90625 -2.929688 0.65625 -3.875 0.65625 -4.96875 Z M 3.984375 -4.9375 C 3.984375 -4.070312 4.253906 -3.367188 4.796875 -2.828125 C 5.335938 -2.285156 6.050781 -2.015625 6.9375 -2.015625 C 7.820312 -2.015625 8.53125 -2.285156 9.0625 -2.828125 C 9.601562 -3.378906 9.875 -4.09375 9.875 -4.96875 C 9.875 -5.832031 9.601562 -6.535156 9.0625 -7.078125 C 8.53125 -7.617188 7.820312 -7.890625 6.9375 -7.890625 C 6.050781 -7.890625 5.335938 -7.613281 4.796875 -7.0625 C 4.253906 -6.519531 3.984375 -5.8125 3.984375 -4.9375 Z M 3.984375 -4.9375 "/></g></g></g><g fill="#a6a6a6" fill-opacity="1"><g transform="translate(88.613175, 87.317045)"><g><path d="M 4.328125 -9.90625 L 4.328125 -8.609375 C 5.234375 -9.703125 6.234375 -10.25 7.328125 -10.25 C 7.429688 -10.25 7.566406 -10.242188 7.734375 -10.234375 C 7.910156 -10.222656 8.0625 -10.207031 8.1875 -10.1875 L 8.1875 -7.578125 C 8.101562 -7.585938 7.960938 -7.597656 7.765625 -7.609375 C 7.566406 -7.617188 7.382812 -7.625 7.21875 -7.625 C 6.320312 -7.625 5.613281 -7.34375 5.09375 -6.78125 C 4.582031 -6.21875 4.328125 -5.4375 4.328125 -4.4375 L 4.328125 0 L 1.25 0 L 1.25 -9.90625 Z M 4.328125 -9.90625 "/></g></g></g><g fill="#a6a6a6" fill-opacity="1"><g transform="translate(96.982937, 87.317045)"><g><path d="M 12.4375 -3.21875 C 12.019531 -2.09375 11.3125 -1.21875 10.3125 -0.59375 C 9.320312 0.03125 8.09375 0.34375 6.625 0.34375 C 5.40625 0.34375 4.347656 0.128906 3.453125 -0.296875 C 2.554688 -0.734375 1.863281 -1.347656 1.375 -2.140625 C 0.894531 -2.929688 0.65625 -3.875 0.65625 -4.96875 C 0.65625 -6.050781 0.894531 -6.984375 1.375 -7.765625 C 1.851562 -8.554688 2.539062 -9.164062 3.4375 -9.59375 C 4.332031 -10.03125 5.394531 -10.25 6.625 -10.25 C 8.539062 -10.25 10.015625 -9.757812 11.046875 -8.78125 C 12.078125 -7.800781 12.59375 -6.398438 12.59375 -4.578125 L 12.59375 -4.15625 L 4.125 -4.15625 C 4.125 -3.4375 4.359375 -2.859375 4.828125 -2.421875 C 5.296875 -1.992188 5.894531 -1.78125 6.625 -1.78125 C 7.21875 -1.78125 7.722656 -1.90625 8.140625 -2.15625 C 8.554688 -2.414062 8.859375 -2.769531 9.046875 -3.21875 Z M 4.21875 -6.203125 L 9.1875 -6.203125 C 9.144531 -6.816406 8.898438 -7.300781 8.453125 -7.65625 C 8.003906 -8.019531 7.421875 -8.203125 6.703125 -8.203125 C 5.992188 -8.203125 5.414062 -8.019531 4.96875 -7.65625 C 4.519531 -7.300781 4.269531 -6.816406 4.21875 -6.203125 Z M 4.21875 -6.203125 "/></g></g></g><g fill="#a6a6a6" fill-opacity="1"><g transform="translate(110.242701, 87.317045)"><g><path d="M 11.90625 -6.953125 L 8.84375 -6.953125 C 8.695312 -7.804688 7.890625 -8.234375 6.421875 -8.234375 C 5.773438 -8.234375 5.28125 -8.148438 4.9375 -7.984375 C 4.601562 -7.828125 4.4375 -7.613281 4.4375 -7.34375 C 4.4375 -7.050781 4.625 -6.832031 5 -6.6875 C 5.375 -6.550781 5.953125 -6.453125 6.734375 -6.390625 L 8.90625 -6.21875 C 9.976562 -6.132812 10.796875 -5.835938 11.359375 -5.328125 C 11.929688 -4.828125 12.21875 -4.144531 12.21875 -3.28125 C 12.21875 -2.101562 11.75 -1.203125 10.8125 -0.578125 C 9.875 0.0351562 8.484375 0.34375 6.640625 0.34375 C 2.941406 0.34375 1.019531 -0.859375 0.875 -3.265625 L 4.125 -3.265625 C 4.164062 -2.734375 4.414062 -2.359375 4.875 -2.140625 C 5.332031 -1.929688 6.007812 -1.828125 6.90625 -1.828125 C 7.582031 -1.828125 8.101562 -1.921875 8.46875 -2.109375 C 8.84375 -2.304688 9.03125 -2.535156 9.03125 -2.796875 C 9.03125 -3.117188 8.890625 -3.320312 8.609375 -3.40625 C 8.328125 -3.5 7.894531 -3.570312 7.3125 -3.625 L 4.515625 -3.859375 C 3.484375 -3.960938 2.671875 -4.285156 2.078125 -4.828125 C 1.492188 -5.378906 1.203125 -6.070312 1.203125 -6.90625 C 1.203125 -7.976562 1.65625 -8.800781 2.5625 -9.375 C 3.476562 -9.957031 4.820312 -10.25 6.59375 -10.25 C 8.300781 -10.25 9.613281 -9.957031 10.53125 -9.375 C 11.445312 -8.789062 11.90625 -7.984375 11.90625 -6.953125 Z M 11.90625 -6.953125 "/></g></g></g><g fill="#ffffff" fill-opacity="1"><g transform="translate(29.218959, 105.180813)"><g><path d="M 7.234375 -7.6875 C 6.335938 -7.6875 5.628906 -7.425781 5.109375 -6.90625 C 4.585938 -6.394531 4.328125 -5.710938 4.328125 -4.859375 C 4.328125 -4.003906 4.585938 -3.316406 5.109375 -2.796875 C 5.628906 -2.273438 6.335938 -2.015625 7.234375 -2.015625 C 8.109375 -2.015625 8.8125 -2.265625 9.34375 -2.765625 C 9.875 -3.273438 10.140625 -3.960938 10.140625 -4.828125 C 10.140625 -5.703125 9.875 -6.394531 9.34375 -6.90625 C 8.820312 -7.425781 8.117188 -7.6875 7.234375 -7.6875 Z M 4.328125 -13.296875 L 4.328125 -8.765625 C 4.703125 -9.179688 5.175781 -9.5 5.75 -9.71875 C 6.320312 -9.9375 7 -10.046875 7.78125 -10.046875 C 8.90625 -10.046875 9.894531 -9.828125 10.75 -9.390625 C 11.601562 -8.953125 12.269531 -8.34375 12.75 -7.5625 C 13.238281 -6.789062 13.484375 -5.890625 13.484375 -4.859375 C 13.484375 -3.835938 13.242188 -2.929688 12.765625 -2.140625 C 12.285156 -1.359375 11.617188 -0.75 10.765625 -0.3125 C 9.921875 0.125 8.945312 0.34375 7.84375 0.34375 C 6.332031 0.34375 5.160156 -0.078125 4.328125 -0.921875 L 4.328125 0 L 1.25 0 L 1.25 -13.296875 Z M 4.328125 -13.296875 "/></g></g></g><g fill="#ffffff" fill-opacity="1"><g transform="translate(43.284563, 105.180813)"><g><path d="M 12.4375 -3.21875 C 12.019531 -2.09375 11.3125 -1.21875 10.3125 -0.59375 C 9.320312 0.03125 8.09375 0.34375 6.625 0.34375 C 5.40625 0.34375 4.347656 0.128906 3.453125 -0.296875 C 2.554688 -0.734375 1.863281 -1.347656 1.375 -2.140625 C 0.894531 -2.929688 0.65625 -3.875 0.65625 -4.96875 C 0.65625 -6.050781 0.894531 -6.984375 1.375 -7.765625 C 1.851562 -8.554688 2.539062 -9.164062 3.4375 -9.59375 C 4.332031 -10.03125 5.394531 -10.25 6.625 -10.25 C 8.539062 -10.25 10.015625 -9.757812 11.046875 -8.78125 C 12.078125 -7.800781 12.59375 -6.398438 12.59375 -4.578125 L 12.59375 -4.15625 L 4.125 -4.15625 C 4.125 -3.4375 4.359375 -2.859375 4.828125 -2.421875 C 5.296875 -1.992188 5.894531 -1.78125 6.625 -1.78125 C 7.21875 -1.78125 7.722656 -1.90625 8.140625 -2.15625 C 8.554688 -2.414062 8.859375 -2.769531 9.046875 -3.21875 Z M 4.21875 -6.203125 L 9.1875 -6.203125 C 9.144531 -6.816406 8.898438 -7.300781 8.453125 -7.65625 C 8.003906 -8.019531 7.421875 -8.203125 6.703125 -8.203125 C 5.992188 -8.203125 5.414062 -8.019531 4.96875 -7.65625 C 4.519531 -7.300781 4.269531 -6.816406 4.21875 -6.203125 Z M 4.21875 -6.203125 "/></g></g></g><g fill="#ffffff" fill-opacity="1"><g transform="translate(56.544327, 105.180813)"><g><path d="M -0.1875 -9.90625 L 3.234375 -9.90625 L 5.890625 -3.53125 L 8.765625 -9.90625 L 12.15625 -9.90625 L 6.59375 1.453125 C 6.332031 1.984375 6.0625 2.398438 5.78125 2.703125 C 5.5 3.003906 5.171875 3.210938 4.796875 3.328125 C 4.429688 3.441406 3.976562 3.5 3.4375 3.5 L 1.3125 3.5 L 1.3125 1.140625 L 3.125 1.140625 C 3.519531 1.140625 3.804688 1.019531 3.984375 0.78125 C 4.171875 0.539062 4.265625 0.273438 4.265625 -0.015625 C 4.265625 -0.140625 4.25 -0.269531 4.21875 -0.40625 C 4.195312 -0.539062 4.140625 -0.703125 4.046875 -0.890625 Z M -0.1875 -9.90625 "/></g></g></g><g fill="#ffffff" fill-opacity="1"><g transform="translate(68.522067, 105.180813)"><g><path d="M 0.65625 -4.96875 C 0.65625 -6.050781 0.90625 -6.984375 1.40625 -7.765625 C 1.90625 -8.554688 2.625 -9.164062 3.5625 -9.59375 C 4.507812 -10.03125 5.632812 -10.25 6.9375 -10.25 C 8.257812 -10.25 9.382812 -10.03125 10.3125 -9.59375 C 11.25 -9.164062 11.960938 -8.554688 12.453125 -7.765625 C 12.953125 -6.984375 13.203125 -6.050781 13.203125 -4.96875 C 13.203125 -3.875 12.953125 -2.929688 12.453125 -2.140625 C 11.953125 -1.347656 11.234375 -0.734375 10.296875 -0.296875 C 9.367188 0.128906 8.25 0.34375 6.9375 0.34375 C 5.644531 0.34375 4.523438 0.128906 3.578125 -0.296875 C 2.640625 -0.734375 1.914062 -1.347656 1.40625 -2.140625 C 0.90625 -2.929688 0.65625 -3.875 0.65625 -4.96875 Z M 3.984375 -4.9375 C 3.984375 -4.070312 4.253906 -3.367188 4.796875 -2.828125 C 5.335938 -2.285156 6.050781 -2.015625 6.9375 -2.015625 C 7.820312 -2.015625 8.53125 -2.285156 9.0625 -2.828125 C 9.601562 -3.378906 9.875 -4.09375 9.875 -4.96875 C 9.875 -5.832031 9.601562 -6.535156 9.0625 -7.078125 C 8.53125 -7.617188 7.820312 -7.890625 6.9375 -7.890625 C 6.050781 -7.890625 5.335938 -7.613281 4.796875 -7.0625 C 4.253906 -6.519531 3.984375 -5.8125 3.984375 -4.9375 Z M 3.984375 -4.9375 "/></g></g></g><g fill="#ffffff" fill-opacity="1"><g transform="translate(82.386213, 105.180813)"><g><path d="M 4.328125 -9.90625 L 4.328125 -8.515625 C 5.398438 -9.671875 6.6875 -10.25 8.1875 -10.25 C 9.300781 -10.25 10.160156 -10.0625 10.765625 -9.6875 C 11.378906 -9.320312 11.8125 -8.789062 12.0625 -8.09375 C 12.3125 -7.394531 12.4375 -6.550781 12.4375 -5.5625 L 12.4375 0 L 9.359375 0 L 9.359375 -5 C 9.359375 -6 9.21875 -6.726562 8.9375 -7.1875 C 8.65625 -7.65625 8.078125 -7.890625 7.203125 -7.890625 C 6.316406 -7.890625 5.613281 -7.644531 5.09375 -7.15625 C 4.582031 -6.664062 4.328125 -5.984375 4.328125 -5.109375 L 4.328125 0 L 1.25 0 L 1.25 -9.90625 Z M 4.328125 -9.90625 "/></g></g></g><g fill="#ffffff" fill-opacity="1"><g transform="translate(96.067207, 105.180813)"><g><path d="M 9.8125 -13.296875 L 12.890625 -13.296875 L 12.890625 0 L 9.8125 0 L 9.8125 -0.921875 C 8.976562 -0.0859375 7.804688 0.328125 6.296875 0.328125 C 5.191406 0.328125 4.210938 0.109375 3.359375 -0.328125 C 2.515625 -0.765625 1.851562 -1.375 1.375 -2.15625 C 0.894531 -2.945312 0.65625 -3.851562 0.65625 -4.875 C 0.65625 -5.90625 0.894531 -6.804688 1.375 -7.578125 C 1.863281 -8.359375 2.535156 -8.960938 3.390625 -9.390625 C 4.242188 -9.828125 5.234375 -10.046875 6.359375 -10.046875 C 7.140625 -10.046875 7.816406 -9.9375 8.390625 -9.71875 C 8.960938 -9.5 9.4375 -9.179688 9.8125 -8.765625 Z M 9.8125 -4.875 C 9.8125 -5.726562 9.546875 -6.410156 9.015625 -6.921875 C 8.492188 -7.429688 7.789062 -7.6875 6.90625 -7.6875 C 6.007812 -7.6875 5.296875 -7.429688 4.765625 -6.921875 C 4.242188 -6.410156 3.984375 -5.722656 3.984375 -4.859375 C 3.984375 -3.984375 4.25 -3.289062 4.78125 -2.78125 C 5.3125 -2.28125 6.019531 -2.03125 6.90625 -2.03125 C 7.789062 -2.03125 8.492188 -2.289062 9.015625 -2.8125 C 9.546875 -3.332031 9.8125 -4.019531 9.8125 -4.875 Z M 9.8125 -4.875 "/></g></g></g><g fill="#ffffff" fill-opacity="1"><g transform="translate(110.206071, 105.180813)"><g/></g></g><g fill="#ffffff" fill-opacity="1"><g transform="translate(116.927524, 105.180813)"><g><path d="M 4.90625 -6.625 L 1.71875 -6.625 C 1.71875 -7.800781 2.191406 -8.695312 3.140625 -9.3125 C 4.097656 -9.9375 5.5 -10.25 7.34375 -10.25 C 8.007812 -10.25 8.648438 -10.203125 9.265625 -10.109375 C 9.878906 -10.015625 10.425781 -9.832031 10.90625 -9.5625 C 11.382812 -9.289062 11.757812 -8.910156 12.03125 -8.421875 C 12.3125 -7.929688 12.453125 -7.296875 12.453125 -6.515625 L 12.453125 -1.59375 C 12.453125 -1.25 12.484375 -0.96875 12.546875 -0.75 C 12.609375 -0.53125 12.726562 -0.351562 12.90625 -0.21875 L 12.90625 0 L 9.515625 0 L 9.375 -1.078125 C 8.8125 -0.578125 8.191406 -0.21875 7.515625 0 C 6.847656 0.226562 6.085938 0.34375 5.234375 0.34375 C 3.828125 0.34375 2.738281 0.0390625 1.96875 -0.5625 C 1.207031 -1.164062 0.828125 -1.957031 0.828125 -2.9375 C 0.828125 -3.957031 1.21875 -4.679688 2 -5.109375 C 2.78125 -5.546875 3.957031 -5.828125 5.53125 -5.953125 C 6.382812 -6.023438 7.097656 -6.082031 7.671875 -6.125 C 8.253906 -6.164062 8.695312 -6.257812 9 -6.40625 C 9.300781 -6.550781 9.453125 -6.804688 9.453125 -7.171875 C 9.453125 -7.921875 8.6875 -8.296875 7.15625 -8.296875 C 6.414062 -8.296875 5.851562 -8.164062 5.46875 -7.90625 C 5.09375 -7.644531 4.90625 -7.21875 4.90625 -6.625 Z M 9.453125 -4.78125 C 9.128906 -4.601562 8.753906 -4.488281 8.328125 -4.4375 C 7.910156 -4.382812 7.445312 -4.328125 6.9375 -4.265625 C 6.070312 -4.179688 5.410156 -4.066406 4.953125 -3.921875 C 4.503906 -3.785156 4.28125 -3.476562 4.28125 -3 C 4.28125 -2.625 4.429688 -2.316406 4.734375 -2.078125 C 5.035156 -1.847656 5.441406 -1.734375 5.953125 -1.734375 C 7.003906 -1.734375 7.847656 -1.988281 8.484375 -2.5 C 9.128906 -3.007812 9.453125 -3.65625 9.453125 -4.4375 Z M 9.453125 -4.78125 "/></g></g></g><g fill="#ffffff" fill-opacity="1"><g transform="translate(130.663463, 105.180813)"><g><path d="M 4.5 -13.296875 L 4.5 0 L 1.421875 0 L 1.421875 -13.296875 Z M 4.5 -13.296875 "/></g></g></g><g fill="#ffffff" fill-opacity="1"><g transform="translate(136.597393, 105.180813)"><g><path d="M 4.5 -13.296875 L 4.5 0 L 1.421875 0 L 1.421875 -13.296875 Z M 4.5 -13.296875 "/></g></g></g><g fill="#5e17eb" fill-opacity="1"><g transform="translate(29.218959, 123.04458)"><g><path d="M 7.8125 -7.6875 C 7.15625 -7.6875 6.554688 -7.53125 6.015625 -7.21875 C 5.472656 -6.90625 5.039062 -6.476562 4.71875 -5.9375 C 4.394531 -5.40625 4.234375 -4.800781 4.234375 -4.125 C 4.234375 -3.476562 4.4375 -2.960938 4.84375 -2.578125 C 5.257812 -2.203125 5.847656 -2.015625 6.609375 -2.015625 C 7.265625 -2.015625 7.863281 -2.160156 8.40625 -2.453125 C 8.957031 -2.753906 9.394531 -3.171875 9.71875 -3.703125 C 10.039062 -4.234375 10.203125 -4.851562 10.203125 -5.5625 C 10.203125 -6.226562 9.992188 -6.75 9.578125 -7.125 C 9.160156 -7.5 8.570312 -7.6875 7.8125 -7.6875 Z M 6.09375 -13.296875 L 5.140625 -8.765625 C 5.609375 -9.179688 6.148438 -9.5 6.765625 -9.71875 C 7.390625 -9.9375 8.09375 -10.046875 8.875 -10.046875 C 10.332031 -10.046875 11.484375 -9.679688 12.328125 -8.953125 C 13.171875 -8.234375 13.59375 -7.265625 13.59375 -6.046875 C 13.59375 -5.128906 13.40625 -4.28125 13.03125 -3.5 C 12.664062 -2.726562 12.164062 -2.050781 11.53125 -1.46875 C 10.894531 -0.894531 10.164062 -0.445312 9.34375 -0.125 C 8.519531 0.1875 7.644531 0.34375 6.71875 0.34375 C 5.21875 0.34375 4.140625 -0.078125 3.484375 -0.921875 L 3.28125 0 L 0.203125 0 L 3.015625 -13.296875 Z M 6.09375 -13.296875 "/></g></g></g><g fill="#5e17eb" fill-opacity="1"><g transform="translate(43.284563, 123.04458)"><g><path d="M 8.078125 -10.25 C 9.785156 -10.25 11.085938 -9.890625 11.984375 -9.171875 C 12.890625 -8.460938 13.34375 -7.476562 13.34375 -6.21875 C 13.34375 -5.332031 13.171875 -4.492188 12.828125 -3.703125 C 12.484375 -2.910156 11.984375 -2.210938 11.328125 -1.609375 C 10.671875 -1.003906 9.878906 -0.523438 8.953125 -0.171875 C 8.023438 0.171875 6.984375 0.34375 5.828125 0.34375 C 4.128906 0.34375 2.816406 -0.015625 1.890625 -0.734375 C 0.972656 -1.460938 0.515625 -2.457031 0.515625 -3.71875 C 0.515625 -4.625 0.6875 -5.46875 1.03125 -6.25 C 1.382812 -7.039062 1.882812 -7.734375 2.53125 -8.328125 C 3.1875 -8.929688 3.976562 -9.398438 4.90625 -9.734375 C 5.84375 -10.078125 6.898438 -10.25 8.078125 -10.25 Z M 7.5625 -7.890625 C 6.863281 -7.890625 6.238281 -7.722656 5.6875 -7.390625 C 5.144531 -7.054688 4.710938 -6.609375 4.390625 -6.046875 C 4.078125 -5.492188 3.921875 -4.882812 3.921875 -4.21875 C 3.921875 -3.539062 4.128906 -3.003906 4.546875 -2.609375 C 4.972656 -2.210938 5.5625 -2.015625 6.3125 -2.015625 C 6.976562 -2.015625 7.582031 -2.175781 8.125 -2.5 C 8.675781 -2.820312 9.113281 -3.257812 9.4375 -3.8125 C 9.769531 -4.375 9.9375 -5 9.9375 -5.6875 C 9.9375 -6.363281 9.726562 -6.898438 9.3125 -7.296875 C 8.90625 -7.691406 8.320312 -7.890625 7.5625 -7.890625 Z M 7.5625 -7.890625 "/></g></g></g><g fill="#5e17eb" fill-opacity="1"><g transform="translate(57.148709, 123.04458)"><g><path d="M 2.3125 -9.90625 L 5.390625 -9.90625 L 4.296875 -4.828125 C 4.222656 -4.492188 4.175781 -4.222656 4.15625 -4.015625 C 4.132812 -3.804688 4.125 -3.625 4.125 -3.46875 C 4.125 -2.957031 4.253906 -2.585938 4.515625 -2.359375 C 4.785156 -2.128906 5.238281 -2.015625 5.875 -2.015625 C 6.757812 -2.015625 7.515625 -2.285156 8.140625 -2.828125 C 8.765625 -3.367188 9.171875 -4.066406 9.359375 -4.921875 L 10.421875 -9.90625 L 13.5 -9.90625 L 11.390625 0 L 8.3125 0 L 8.625 -1.484375 C 7.957031 -0.910156 7.269531 -0.460938 6.5625 -0.140625 C 5.863281 0.179688 5.132812 0.34375 4.375 0.34375 C 3.101562 0.34375 2.207031 0.0859375 1.6875 -0.421875 C 1.175781 -0.941406 0.921875 -1.664062 0.921875 -2.59375 C 0.921875 -3.125 0.992188 -3.742188 1.140625 -4.453125 Z M 2.3125 -9.90625 "/></g></g></g><g fill="#5e17eb" fill-opacity="1"><g transform="translate(70.829703, 123.04458)"><g><path d="M 5.390625 -9.90625 L 5.09375 -8.515625 C 6.40625 -9.671875 7.820312 -10.25 9.34375 -10.25 C 10.613281 -10.25 11.503906 -10 12.015625 -9.5 C 12.535156 -9 12.796875 -8.296875 12.796875 -7.390625 C 12.796875 -6.859375 12.722656 -6.25 12.578125 -5.5625 L 11.390625 0 L 8.3125 0 L 9.390625 -5 C 9.453125 -5.28125 9.5 -5.535156 9.53125 -5.765625 C 9.5625 -5.992188 9.578125 -6.207031 9.578125 -6.40625 C 9.578125 -6.914062 9.445312 -7.289062 9.1875 -7.53125 C 8.9375 -7.769531 8.488281 -7.890625 7.84375 -7.890625 C 6.957031 -7.890625 6.203125 -7.640625 5.578125 -7.140625 C 4.960938 -6.648438 4.5625 -5.972656 4.375 -5.109375 L 3.28125 0 L 0.203125 0 L 2.3125 -9.90625 Z M 5.390625 -9.90625 "/></g></g></g><g fill="#5e17eb" fill-opacity="1"><g transform="translate(84.510697, 123.04458)"><g><path d="M 11.59375 -13.296875 L 14.671875 -13.296875 L 11.84375 0 L 8.765625 0 L 8.953125 -0.921875 C 8.429688 -0.492188 7.859375 -0.179688 7.234375 0.015625 C 6.617188 0.222656 5.9375 0.328125 5.1875 0.328125 C 4.21875 0.328125 3.382812 0.15625 2.6875 -0.1875 C 1.988281 -0.53125 1.453125 -1.003906 1.078125 -1.609375 C 0.703125 -2.210938 0.515625 -2.914062 0.515625 -3.71875 C 0.515625 -4.570312 0.6875 -5.378906 1.03125 -6.140625 C 1.382812 -6.898438 1.867188 -7.570312 2.484375 -8.15625 C 3.109375 -8.75 3.84375 -9.210938 4.6875 -9.546875 C 5.53125 -9.878906 6.445312 -10.046875 7.4375 -10.046875 C 8.21875 -10.046875 8.867188 -9.9375 9.390625 -9.71875 C 9.921875 -9.5 10.335938 -9.179688 10.640625 -8.765625 Z M 7.484375 -7.6875 C 6.816406 -7.6875 6.210938 -7.535156 5.671875 -7.234375 C 5.128906 -6.941406 4.695312 -6.53125 4.375 -6 C 4.0625 -5.46875 3.90625 -4.847656 3.90625 -4.140625 C 3.90625 -3.484375 4.113281 -2.96875 4.53125 -2.59375 C 4.957031 -2.21875 5.539062 -2.03125 6.28125 -2.03125 C 6.9375 -2.03125 7.535156 -2.179688 8.078125 -2.484375 C 8.628906 -2.796875 9.066406 -3.21875 9.390625 -3.75 C 9.710938 -4.28125 9.875 -4.890625 9.875 -5.578125 C 9.875 -6.234375 9.664062 -6.75 9.25 -7.125 C 8.832031 -7.5 8.242188 -7.6875 7.484375 -7.6875 Z M 7.484375 -7.6875 "/></g></g></g><g fill="#5e17eb" fill-opacity="1"><g transform="translate(98.649561, 123.04458)"><g><path d="M 5.28125 -6.625 L 2.09375 -6.625 C 2.300781 -7.820312 2.957031 -8.722656 4.0625 -9.328125 C 5.164062 -9.941406 6.640625 -10.25 8.484375 -10.25 C 9.273438 -10.25 10.003906 -10.175781 10.671875 -10.03125 C 11.347656 -9.894531 11.890625 -9.632812 12.296875 -9.25 C 12.703125 -8.875 12.90625 -8.304688 12.90625 -7.546875 C 12.90625 -7.390625 12.894531 -7.222656 12.875 -7.046875 C 12.851562 -6.878906 12.820312 -6.703125 12.78125 -6.515625 L 11.78125 -1.765625 C 11.738281 -1.597656 11.703125 -1.429688 11.671875 -1.265625 C 11.648438 -1.109375 11.640625 -0.976562 11.640625 -0.875 C 11.640625 -0.570312 11.726562 -0.351562 11.90625 -0.21875 L 11.859375 0 L 8.484375 0 L 8.546875 -1.078125 C 7.878906 -0.578125 7.1875 -0.21875 6.46875 0 C 5.757812 0.226562 4.976562 0.34375 4.125 0.34375 C 2.894531 0.34375 1.953125 0.109375 1.296875 -0.359375 C 0.648438 -0.835938 0.328125 -1.46875 0.328125 -2.25 C 0.328125 -3.445312 0.800781 -4.34375 1.75 -4.9375 C 2.707031 -5.53125 4.039062 -5.867188 5.75 -5.953125 C 6.75 -6.003906 7.554688 -6.066406 8.171875 -6.140625 C 8.785156 -6.222656 9.234375 -6.359375 9.515625 -6.546875 C 9.796875 -6.742188 9.9375 -7.023438 9.9375 -7.390625 C 9.9375 -7.660156 9.78125 -7.878906 9.46875 -8.046875 C 9.164062 -8.210938 8.632812 -8.296875 7.875 -8.296875 C 7.125 -8.296875 6.53125 -8.164062 6.09375 -7.90625 C 5.664062 -7.644531 5.394531 -7.21875 5.28125 -6.625 Z M 9.40625 -4.78125 C 9.113281 -4.644531 8.742188 -4.535156 8.296875 -4.453125 C 7.847656 -4.378906 7.347656 -4.316406 6.796875 -4.265625 C 5.796875 -4.179688 5.050781 -4.035156 4.5625 -3.828125 C 4.082031 -3.617188 3.84375 -3.269531 3.84375 -2.78125 C 3.84375 -2.507812 3.953125 -2.265625 4.171875 -2.046875 C 4.390625 -1.835938 4.757812 -1.734375 5.28125 -1.734375 C 5.988281 -1.734375 6.625 -1.847656 7.1875 -2.078125 C 7.757812 -2.316406 8.234375 -2.632812 8.609375 -3.03125 C 8.984375 -3.4375 9.226562 -3.90625 9.34375 -4.4375 Z M 9.40625 -4.78125 "/></g></g></g><g fill="#5e17eb" fill-opacity="1"><g transform="translate(112.385501, 123.04458)"><g><path d="M 5.390625 -9.90625 L 5.109375 -8.609375 C 6.265625 -9.703125 7.390625 -10.25 8.484375 -10.25 C 8.585938 -10.25 8.722656 -10.242188 8.890625 -10.234375 C 9.054688 -10.222656 9.203125 -10.207031 9.328125 -10.1875 L 8.75 -7.578125 C 8.675781 -7.585938 8.539062 -7.597656 8.34375 -7.609375 C 8.15625 -7.617188 7.972656 -7.625 7.796875 -7.625 C 6.910156 -7.625 6.144531 -7.335938 5.5 -6.765625 C 4.863281 -6.203125 4.441406 -5.425781 4.234375 -4.4375 L 3.28125 0 L 0.203125 0 L 2.3125 -9.90625 Z M 5.390625 -9.90625 "/></g></g></g><g fill="#5e17eb" fill-opacity="1"><g transform="translate(120.755263, 123.04458)"><g><path d="M 5.5625 -9.90625 L 3.46875 0 L 0.390625 0 L 2.484375 -9.90625 Z M 3.203125 -13.28125 L 6.28125 -13.28125 L 5.78125 -10.921875 L 2.703125 -10.921875 Z M 3.203125 -13.28125 "/></g></g></g><g fill="#5e17eb" fill-opacity="1"><g transform="translate(126.689192, 123.04458)"><g><path d="M 12.0625 -3.21875 C 11.414062 -2.09375 10.523438 -1.21875 9.390625 -0.59375 C 8.265625 0.03125 6.972656 0.34375 5.515625 0.34375 C 3.921875 0.34375 2.6875 -0.0078125 1.8125 -0.71875 C 0.945312 -1.4375 0.515625 -2.425781 0.515625 -3.6875 C 0.515625 -4.675781 0.695312 -5.570312 1.0625 -6.375 C 1.4375 -7.175781 1.953125 -7.867188 2.609375 -8.453125 C 3.273438 -9.035156 4.046875 -9.476562 4.921875 -9.78125 C 5.804688 -10.09375 6.753906 -10.25 7.765625 -10.25 C 9.378906 -10.25 10.601562 -9.898438 11.4375 -9.203125 C 12.28125 -8.503906 12.703125 -7.492188 12.703125 -6.171875 C 12.703125 -5.929688 12.679688 -5.648438 12.640625 -5.328125 C 12.609375 -5.015625 12.539062 -4.625 12.4375 -4.15625 L 3.953125 -4.15625 C 3.898438 -3.96875 3.875 -3.78125 3.875 -3.59375 C 3.875 -3.03125 4.0625 -2.585938 4.4375 -2.265625 C 4.8125 -1.941406 5.316406 -1.78125 5.953125 -1.78125 C 6.535156 -1.78125 7.066406 -1.90625 7.546875 -2.15625 C 8.023438 -2.414062 8.40625 -2.769531 8.6875 -3.21875 Z M 4.484375 -6.203125 L 9.46875 -6.203125 C 9.46875 -6.867188 9.300781 -7.367188 8.96875 -7.703125 C 8.644531 -8.035156 8.117188 -8.203125 7.390625 -8.203125 C 6.691406 -8.203125 6.078125 -8.019531 5.546875 -7.65625 C 5.023438 -7.300781 4.671875 -6.816406 4.484375 -6.203125 Z M 4.484375 -6.203125 "/></g></g></g><g fill="#5e17eb" fill-opacity="1"><g transform="translate(139.948956, 123.04458)"><g><path d="M 12.328125 -6.953125 L 9.265625 -6.953125 C 9.265625 -7.410156 9.085938 -7.738281 8.734375 -7.9375 C 8.390625 -8.132812 7.851562 -8.234375 7.125 -8.234375 C 6.476562 -8.234375 5.945312 -8.140625 5.53125 -7.953125 C 5.125 -7.773438 4.921875 -7.53125 4.921875 -7.21875 C 4.921875 -6.976562 5.082031 -6.796875 5.40625 -6.671875 C 5.726562 -6.546875 6.273438 -6.453125 7.046875 -6.390625 L 9.171875 -6.21875 C 10.078125 -6.144531 10.765625 -5.910156 11.234375 -5.515625 C 11.703125 -5.128906 11.9375 -4.609375 11.9375 -3.953125 C 11.9375 -3.023438 11.671875 -2.238281 11.140625 -1.59375 C 10.609375 -0.957031 9.863281 -0.472656 8.90625 -0.140625 C 7.945312 0.179688 6.820312 0.34375 5.53125 0.34375 C 2.15625 0.34375 0.46875 -0.660156 0.46875 -2.671875 C 0.46875 -2.765625 0.472656 -2.875 0.484375 -3 C 0.492188 -3.125 0.503906 -3.210938 0.515625 -3.265625 L 3.75 -3.265625 C 3.75 -2.703125 3.941406 -2.320312 4.328125 -2.125 C 4.710938 -1.925781 5.351562 -1.828125 6.25 -1.828125 C 6.925781 -1.828125 7.484375 -1.925781 7.921875 -2.125 C 8.367188 -2.332031 8.59375 -2.617188 8.59375 -2.984375 C 8.59375 -3.191406 8.472656 -3.335938 8.234375 -3.421875 C 8.003906 -3.503906 7.601562 -3.570312 7.03125 -3.625 L 4.28125 -3.859375 C 3.414062 -3.941406 2.742188 -4.191406 2.265625 -4.609375 C 1.796875 -5.035156 1.5625 -5.582031 1.5625 -6.25 C 1.5625 -7.101562 1.8125 -7.828125 2.3125 -8.421875 C 2.820312 -9.023438 3.535156 -9.476562 4.453125 -9.78125 C 5.378906 -10.09375 6.472656 -10.25 7.734375 -10.25 C 9.253906 -10.25 10.410156 -10.007812 11.203125 -9.53125 C 11.992188 -9.0625 12.390625 -8.410156 12.390625 -7.578125 C 12.390625 -7.359375 12.367188 -7.148438 12.328125 -6.953125 Z M 12.328125 -6.953125 "/></g></g></g></svg>